<?xml version="1.0" encoding="UTF-8"?>
<!DOCTYPE svg PUBLIC "-//W3C//DTD SVG 1.0//EN" "http://www.w3.org/TR/2001/REC-SVG-20010904/DTD/svg10.dtd">
<!-- Creator: CorelDRAW 2019 (64-Bit) -->
<svg xmlns="http://www.w3.org/2000/svg" xml:space="preserve" width="10cm" height="3.36601cm" version="1.0" shape-rendering="geometricPrecision" text-rendering="geometricPrecision" image-rendering="optimizeQuality" fill-rule="evenodd" clip-rule="evenodd"
viewBox="0 0 7671.58 2582.26"
 xmlns:xlink="http://www.w3.org/1999/xlink">
 <g id="Слой_x0020_1">
  <metadata id="CorelCorpID_0Corel-Layer"/>
  <g id="_2110903462144">
   <g>
    <path fill="#c62828" d="M923.31 159.68l323.33 -159.68 0 173.05 -323.33 161.01 0 -174.37 0 0.03 0 -0.03zm-214.47 1107.68c78.84,0 152.32,20.05 214.47,54.11l0 605.29c-62.16,34.75 -135.63,54.12 -214.47,54.12 -223.81,0 -405.51,-159.69 -405.51,-356.76 0,-197.08 181.73,-356.76 405.51,-356.76l0 0.02 0 -0.02zm214.47 -140.97l0 -456.29 323.33 -161.01 0 685.45c-86.17,116.26 -138.29,266.57 -138.29,430.92 0,164.36 52.11,314.68 138.29,430.25l0 152.33 -323.33 0 0 -106.23c-94.88,62.13 -209.1,98.19 -332.05,98.19 -326.04,0 -591.26,-253.87 -591.26,-565.86 0,-434.91 567.89,-738.9 923.28,-507.73l0.03 -0.03 0 0.03zm323.33 -861.17l0 151.01 -323.33 160.98 0 -150.97 323.33 -161.01z"/>
    <path fill="#c62828" d="M1861.95 1042.21c354.76,0 643.37,258.52 643.37,577.23 0,318.67 -288.61,577.2 -643.37,577.2 -355.41,0 -643.37,-258.53 -643.37,-577.2 0,-318.68 287.96,-577.23 643.37,-577.23zm0 213.79c177.71,0 321.33,163.02 321.33,363.44 0,201.07 -143.65,363.43 -321.33,363.43 -177.71,0 -321.33,-162.34 -321.33,-363.43 0,-200.44 143.65,-363.44 321.33,-363.44z"/>
    <path fill="#c62828" d="M3198.78 1042.21c161.01,0 307.99,56.13 418.9,146.98l-116.26 169.03c-114.22,-82.84 -165.7,-100.22 -302.65,-102.21 -136.95,-1.32 -314.65,163.02 -314.65,363.44 0,201.07 145.65,363.43 314.65,363.43 169.03,0 314,-128.28 328.03,-314l0 0c18.71,-128.93 22.05,-278.59 144.97,-417.52 115.57,-122.92 287.27,-199.11 430.91,-194.4 202.45,-4.03 247.2,8.04 342.07,69.49l0 -456.29 323.34 -161.01 0 685.45c0,861.16 -0.66,253.21 0,861.16l0 152.33 -323.34 0 0 -104.24c-94.87,62.14 -203.09,84.18 -333.39,84.18 -129.62,0 -253.87,-43.42 -350.06,-122.26l122.92 -193.06 0 0c74.16,86.17 239.84,108.22 345.41,108.22 105.54,0 152.98,-19.37 215.12,-54.11l0 -605.29c-62.13,-34.06 -136.31,-54.12 -215.12,-54.12 -199.76,0 -401.52,138.94 -401.52,352.08 0,13.37 -0.66,26.07 -1.34,38.77 -10.04,123.61 -70.82,237.83 -160.34,347.39 -114.93,116.92 -281.92,191.07 -467.67,191.07 -347.4,0 -629.34,-258.53 -629.34,-577.23 0,-318.68 281.92,-577.2 629.34,-577.2l0.02 -0.08 0 0.03z"/>
    <path fill="#c62828" d="M5841.05 1042.21c378.81,1.99 585.25,366.79 563.19,577.23 -3.34,32.06 -6.01,54.78 -7.36,71.48 -53.45,0 0,0 -53.45,0l-199.11 0 -525.79 0 0 -176.38 518.46 0c-38.09,-149.65 -156.33,-258.53 -295.98,-258.53 -171.01,0 -309.31,163.02 -309.31,363.44 0,201.07 146.3,358.75 309.31,363.43 162.34,4.65 239.84,-36.09 302.67,-96.87l137.61 187.74c-114.9,78.84 -167.67,115.58 -440.25,122.92 -299.28,4.69 -629.98,-226.48 -619.31,-577.2 0,-318.68 240.5,-578.56 619.31,-577.23l0.02 0 0 -0.02z"/>
    <path fill="#c62828" d="M5158.23 509.08l-323.33 161.01c0,451.6 0,903.91 0,1355.54 8.04,194.4 288.61,221.8 469.66,61.47 -70.14,-19.37 -145.63,-62.13 -146.3,-156.32l0 -1421.67 -0.03 -0.03z"/>
   </g>
   <path fill="#c62828" fill-rule="nonzero" d="M7209.25 907.26l0 225.82 -173.05 0 0 646.02c0,86.86 1.99,138.3 6.02,152.33 3.33,14.69 12.01,26.06 24.72,36.09 13.37,9.34 29.38,14.03 48.11,14.03 26.04,0 56.77,0.66 112.24,-1.99l16.03 217.13c-78.83,21.39 -134.27,22.73 -217.79,22.73 -50.78,0 -96.86,-8.68 -137.61,-25.38 -40.76,-17.37 -70.85,-40.1 -90.19,-66.83 -19.37,-27.38 -32.07,-64.12 -40.1,-110.24 -5.34,-32.72 -8.68,-99.53 -8.68,-199.76l0 -680.76 -130.27 0 0 -225.82 130.27 0 0 -205.1 287.27 -132.29 0 334.03 173.05 0 0 -0.03zm462.33 263.92l0 933.3c0,136.95 -8.68,233.17 -26.07,289.28 -18.02,56.13 -52.77,99.53 -102.89,130.95 -88.2,56.13 -239.15,69.49 -322.01,47.44l-0.66 -251.88c46.76,8.68 80.82,-1.34 122.92,-29.4 18.71,-12.7 30.75,-27.39 36.73,-44.78 6.02,-17.37 9.35,-70.14 9.35,-157.65l0 -917.27 282.61 0 0.02 0z"/>
   <circle fill="#c62828" cx="7530.63" cy="1010.84" r="140.29"/>
  </g>
 </g>
</svg>
